<?xml version="1.0" standalone="no"?>
<!DOCTYPE svg PUBLIC "-//W3C//DTD SVG 20010904//EN"
 "http://www.w3.org/TR/2001/REC-SVG-20010904/DTD/svg10.dtd">
<svg version="1.0" xmlns="http://www.w3.org/2000/svg"
 width="1500.000000pt" height="1500.000000pt" viewBox="0 0 1500.000000 1500.000000"
 preserveAspectRatio="xMidYMid meet">
<metadata>
Created by potrace 1.14, written by Peter Selinger 2001-2017
</metadata>
<g transform="translate(0.000000,1500.000000) scale(0.100000,-0.100000)"
fill="#000000" stroke="none">
<path d="M7433 14959 c-37 -21 -75 -43 -83 -48 -8 -5 -100 -59 -205 -119 -459
-264 -580 -334 -740 -427 -93 -54 -208 -121 -255 -148 -47 -27 -105 -61 -130
-75 -25 -14 -110 -63 -189 -109 -79 -45 -146 -83 -149 -83 -3 0 -13 -6 -21
-14 -9 -8 -40 -27 -69 -42 -29 -16 -61 -34 -70 -39 -9 -6 -48 -28 -87 -50 -38
-21 -97 -55 -130 -75 -33 -20 -80 -48 -105 -62 -25 -14 -119 -68 -210 -120
-91 -52 -225 -130 -297 -172 -73 -42 -191 -110 -262 -151 -71 -41 -145 -83
-163 -93 -18 -11 -100 -58 -181 -106 -82 -47 -153 -86 -158 -86 -5 0 -9 -4 -9
-10 0 -5 -4 -10 -10 -10 -5 0 -73 -37 -152 -83 -79 -46 -249 -145 -378 -219
-129 -75 -251 -145 -270 -157 -19 -11 -42 -24 -50 -28 -8 -4 -62 -34 -120 -68
-58 -34 -186 -108 -285 -165 -99 -57 -208 -120 -242 -141 -34 -22 -64 -39 -67
-39 -2 0 -71 -39 -153 -86 -81 -48 -164 -96 -183 -107 -31 -17 -166 -95 -212
-122 -9 -5 -41 -23 -70 -39 -29 -15 -60 -33 -68 -40 -8 -6 -24 -16 -35 -22
-33 -18 -416 -239 -473 -273 -29 -17 -55 -31 -58 -31 -2 0 -22 -11 -44 -25
l-40 -25 0 -3749 0 -3749 50 -31 c28 -17 52 -31 55 -31 3 0 29 -16 59 -35 30
-19 57 -35 60 -35 2 0 53 -29 113 -64 99 -58 449 -261 533 -308 19 -11 55 -32
80 -47 25 -14 57 -33 71 -41 31 -18 262 -150 287 -165 47 -27 181 -105 212
-123 19 -11 150 -86 290 -167 140 -81 273 -157 295 -170 22 -13 96 -56 165
-95 69 -40 139 -81 155 -90 97 -56 241 -139 313 -181 45 -27 84 -49 86 -49 2
0 45 -25 95 -55 51 -30 94 -55 97 -55 2 0 23 -11 45 -26 22 -14 55 -33 72 -43
64 -36 813 -469 847 -490 19 -11 42 -24 50 -28 8 -4 49 -27 90 -51 41 -25 89
-53 105 -62 150 -85 518 -298 547 -317 21 -12 39 -23 42 -23 2 0 55 -30 117
-66 109 -64 298 -173 659 -381 91 -53 179 -104 195 -114 17 -10 46 -26 65 -37
19 -10 163 -93 320 -184 157 -91 294 -170 306 -176 18 -10 40 0 159 68 75 44
141 80 146 80 5 0 9 5 9 10 0 6 4 10 9 10 5 0 76 39 158 86 81 48 168 98 193
112 25 14 77 44 115 67 39 22 77 44 85 48 8 4 29 15 45 26 23 14 586 339 780
451 65 37 460 266 595 344 25 14 81 46 125 71 44 25 87 50 95 55 35 22 169 99
210 122 25 14 173 99 330 190 157 91 300 174 319 184 18 11 41 24 50 29 18 11
161 93 231 133 25 14 57 33 72 43 14 11 28 19 31 19 3 0 54 29 114 63 59 35
216 126 348 202 440 253 530 305 545 315 8 5 40 23 70 40 30 17 64 36 75 43
28 18 84 50 135 79 25 14 85 48 133 77 49 28 91 51 94 51 3 0 17 8 31 19 15
10 47 29 72 43 65 36 453 260 534 309 17 10 42 24 56 32 14 7 86 49 160 92 74
43 191 111 260 150 l125 73 3 3750 c2 2992 -1 3752 -10 3759 -7 6 -38 24 -68
40 -30 17 -90 51 -133 76 -43 26 -81 47 -84 47 -3 0 -17 8 -31 19 -15 10 -47
29 -72 43 -25 14 -191 110 -370 213 -179 103 -343 198 -366 210 -22 13 -58 34
-80 47 -21 14 -61 37 -89 53 -27 15 -239 136 -470 270 -231 133 -436 251 -455
262 -19 11 -120 69 -225 130 -104 61 -278 161 -385 223 -107 62 -208 120 -225
130 -16 9 -75 43 -130 75 -55 32 -119 69 -143 82 -23 13 -93 54 -155 90 -62
36 -136 79 -165 95 -30 17 -97 56 -150 87 -54 31 -104 60 -112 64 -8 4 -31 17
-50 28 -19 12 -141 82 -270 157 -129 74 -273 158 -320 185 -47 27 -101 59
-120 70 -123 69 -197 112 -288 166 -57 34 -106 61 -108 61 -2 0 -23 12 -45 26
-23 14 -60 36 -82 49 -23 13 -226 130 -452 260 -225 131 -430 249 -455 263
-25 14 -109 63 -188 109 -78 45 -147 83 -152 83 -6 0 -10 4 -10 9 0 24 -44 16
-107 -20z"/>
</g>
</svg>
